<svg style="width: 0; height: 0;" xmlns="http://www.w3.org/2000/svg">
<symbol viewBox="0 0 24 24" id="location-search">
<path d="M20.6465 17.3535C20.8417 17.5488 21.1583 17.5488 21.3536 17.3535C21.5488 17.1583 21.5488 16.8417 21.3536 16.6464L20.6465 17.3535ZM5.37139 5.54856L5.1857 6.01279L5.37139 5.54856ZM9 7L8.8143 7.46424C8.94691 7.51728 9.09587 7.51108 9.22361 7.44721L9 7ZM9 19L8.8143 19.4642C8.94691 19.5173 9.09587 19.5111 9.22361 19.4472L9 19ZM5.25722 17.5029L5.07152 17.9671L5.07152 17.9671L5.25722 17.5029ZM13 5L13.1857 4.53576C13.0531 4.48272 12.9041 4.48892 12.7764 4.55279L13 5ZM9.5 12C9.5 11.7239 9.27614 11.5 9 11.5C8.72386 11.5 8.5 11.7239 8.5 12H9.5ZM16.7428 6.49711L16.5571 6.96135L16.5571 6.96135L16.7428 6.49711ZM16.6286 18.4514L16.8143 17.9872L16.8143 17.9872L16.6286 18.4514ZM13.5 15C13.5 14.7239 13.2761 14.5 13 14.5C12.7239 14.5 12.5 14.7239 12.5 15H13.5ZM12.5 11C12.5 11.2761 12.7239 11.5 13 11.5C13.2761 11.5 13.5 11.2761 13.5 11H12.5ZM19.5 14C19.5 14.8284 18.8284 15.5 18 15.5V16.5C19.3807 16.5 20.5 15.3807 20.5 14H19.5ZM18 15.5C17.1716 15.5 16.5 14.8284 16.5 14H15.5C15.5 15.3807 16.6193 16.5 18 16.5V15.5ZM16.5 14C16.5 13.1716 17.1716 12.5 18 12.5V11.5C16.6193 11.5 15.5 12.6193 15.5 14H16.5ZM18 12.5C18.8284 12.5 19.5 13.1716 19.5 14H20.5C20.5 12.6193 19.3807 11.5 18 11.5V12.5ZM19.3032 16.0103L20.6465 17.3535L21.3536 16.6464L20.0103 15.3032L19.3032 16.0103ZM5.1857 6.01279L8.8143 7.46424L9.1857 6.53576L5.55709 5.08432L5.1857 6.01279ZM9.1857 18.5358L5.44291 17.0386L5.07152 17.9671L8.8143 19.4642L9.1857 18.5358ZM4.5 15.6459V6.47703H3.5V15.6459H4.5ZM5.44291 17.0386C4.87343 16.8109 4.5 16.2593 4.5 15.6459H3.5C3.5 16.6682 4.12238 17.5875 5.07152 17.9671L5.44291 17.0386ZM5.55709 5.08432C4.57179 4.6902 3.5 5.41584 3.5 6.47703H4.5C4.5 6.1233 4.85726 5.88142 5.1857 6.01279L5.55709 5.08432ZM12.7764 4.55279L8.77639 6.55279L9.22361 7.44721L13.2236 5.44721L12.7764 4.55279ZM9.22361 19.4472L13.2236 17.4472L12.7764 16.5528L8.77639 18.5528L9.22361 19.4472ZM8.5 12V19H9.5V12H8.5ZM12.8143 5.46424L16.5571 6.96135L16.9285 6.03287L13.1857 4.53576L12.8143 5.46424ZM16.8143 17.9872L13.1857 16.5358L12.8143 17.4642L16.4429 18.9157L16.8143 17.9872ZM13.5 17V15H12.5V17H13.5ZM13.5 11V5H12.5V11H13.5ZM17.5 8.35407V12H18.5V8.35407H17.5ZM17.5 16V17.523H18.5V16H17.5ZM16.4429 18.9157C17.4282 19.3098 18.5 18.5842 18.5 17.523H17.5C17.5 17.8767 17.1427 18.1186 16.8143 17.9872L16.4429 18.9157ZM16.5571 6.96135C17.1266 7.18915 17.5 7.74071 17.5 8.35407H18.5C18.5 7.3318 17.8776 6.41253 16.9285 6.03287L16.5571 6.96135Z" />
</symbol>

<symbol viewBox="0 0 24 24" id="payment">
<path d="M19 5.284H18.5H19ZM19 19.2609H19.5H19ZM5 5.284L5.5 5.284L5 5.284ZM5 19.2609L4.5 19.2609L5 19.2609ZM7.46258 5.18568L7.83886 5.51493L7.83886 5.51493L7.46258 5.18568ZM7.7642 4.84096L7.38791 4.51171L7.38791 4.51171L7.7642 4.84096ZM9.2358 4.84096L8.85951 5.17021L8.85951 5.17022L9.2358 4.84096ZM9.375 5.00005L9.75129 4.6708L9.75129 4.6708L9.375 5.00005ZM14.625 5.00005L14.2487 4.6708L14.2487 4.6708L14.625 5.00005ZM14.7642 4.84096L15.1405 5.17022L15.1405 5.17021L14.7642 4.84096ZM16.2358 4.84096L16.6121 4.51171L16.6121 4.51171L16.2358 4.84096ZM16.5374 5.18568L16.1611 5.51493L16.1611 5.51493L16.5374 5.18568ZM7.86002 19.6343L7.61195 20.0685L7.61195 20.0685L7.86002 19.6343ZM7.38725 19.3642L7.63532 18.9301L7.63532 18.9301L7.38725 19.3642ZM9.375 19.5001L9.12693 19.0659L9.12693 19.0659L9.375 19.5001ZM9.13998 19.6343L9.38805 20.0685L9.38805 20.0685L9.13998 19.6343ZM14.86 19.6343L14.6119 20.0685L14.6119 20.0685L14.86 19.6343ZM14.625 19.5001L14.8731 19.0659L14.8731 19.0659L14.625 19.5001ZM16.6128 19.3642L16.3647 18.9301L16.3647 18.9301L16.6128 19.3642ZM16.14 19.6343L16.3881 20.0685L16.3881 20.0685L16.14 19.6343ZM17.6198 19.634L17.1879 19.886L17.1879 19.886L17.6198 19.634ZM12.875 19.5001L12.6269 19.0659L12.6269 19.0659L12.875 19.5001ZM6.38018 19.634L5.9483 19.3821L5.9483 19.3821L6.38018 19.634ZM17.6837 5.00867L18.1418 5.20908L18.1418 5.20908L17.6837 5.00867ZM6.31627 5.00867L5.85819 5.20908L5.85819 5.20908L6.31627 5.00867ZM12 12.7501C12.2761 12.7501 12.5 12.5262 12.5 12.2501C12.5 11.9739 12.2761 11.7501 12 11.7501V12.7501ZM8 11.7501C7.72386 11.7501 7.5 11.9739 7.5 12.2501C7.5 12.5262 7.72386 12.7501 8 12.7501V11.7501ZM16 9.75005C16.2761 9.75005 16.5 9.52619 16.5 9.25005C16.5 8.97391 16.2761 8.75005 16 8.75005V9.75005ZM8 8.75005C7.72386 8.75005 7.5 8.97391 7.5 9.25005C7.5 9.52619 7.72386 9.75005 8 9.75005V8.75005ZM14 15.7501C14.2761 15.7501 14.5 15.5262 14.5 15.2501C14.5 14.9739 14.2761 14.7501 14 14.7501V15.7501ZM8 14.7501C7.72386 14.7501 7.5 14.9739 7.5 15.2501C7.5 15.5262 7.72386 15.7501 8 15.7501V14.7501ZM18.5 5.284V19.2609H19.5V5.284H18.5ZM4.5 5.284L4.5 19.2609L5.5 19.2609L5.5 5.284L4.5 5.284ZM7.83886 5.51493L8.14049 5.17021L7.38791 4.51171L7.08629 4.85643L7.83886 5.51493ZM8.85951 5.17022L8.99871 5.3293L9.75129 4.6708L9.61208 4.51171L8.85951 5.17022ZM15.0013 5.3293L15.1405 5.17022L14.3879 4.51171L14.2487 4.6708L15.0013 5.3293ZM15.8595 5.17021L16.1611 5.51493L16.9137 4.85643L16.6121 4.51171L15.8595 5.17021ZM8.10809 19.2002L7.63532 18.9301L7.13918 19.7983L7.61195 20.0685L8.10809 19.2002ZM9.12693 19.0659L8.89191 19.2002L9.38805 20.0685L9.62307 19.9342L9.12693 19.0659ZM15.1081 19.2002L14.8731 19.0659L14.3769 19.9342L14.6119 20.0685L15.1081 19.2002ZM16.3647 18.9301L15.8919 19.2002L16.3881 20.0685L16.8608 19.7983L16.3647 18.9301ZM18.0517 19.3821C17.7087 18.794 16.9558 18.5923 16.3647 18.9301L16.8608 19.7983C16.9754 19.7328 17.1214 19.7719 17.1879 19.886L18.0517 19.3821ZM14.6119 20.0685C15.1622 20.3829 15.8378 20.3829 16.3881 20.0685L15.8919 19.2002C15.6491 19.339 15.3509 19.339 15.1081 19.2002L14.6119 20.0685ZM13.1231 19.9342C13.5115 19.7122 13.9885 19.7122 14.3769 19.9342L14.8731 19.0659C14.1772 18.6683 13.3228 18.6683 12.6269 19.0659L13.1231 19.9342ZM10.8769 19.9342C11.5728 20.3318 12.4272 20.3318 13.1231 19.9342L12.6269 19.0659C12.2385 19.2879 11.7615 19.2879 11.3731 19.0659L10.8769 19.9342ZM9.62307 19.9342C10.0115 19.7122 10.4885 19.7122 10.8769 19.9342L11.3731 19.0659C10.6772 18.6683 9.82284 18.6683 9.12693 19.0659L9.62307 19.9342ZM7.61195 20.0685C8.16223 20.3829 8.83777 20.3829 9.38805 20.0685L8.89191 19.2002C8.64906 19.339 8.35094 19.339 8.10809 19.2002L7.61195 20.0685ZM6.81207 19.886C6.87859 19.7719 7.02456 19.7328 7.13918 19.7983L7.63532 18.9301C7.04421 18.5923 6.29133 18.794 5.9483 19.3821L6.81207 19.886ZM16.1611 5.51493C16.734 6.16959 17.7931 6.00603 18.1418 5.20908L17.2257 4.80826C17.1707 4.93377 17.0039 4.95953 16.9137 4.85643L16.1611 5.51493ZM15.1405 5.17021C15.3308 4.9527 15.6692 4.9527 15.8595 5.17022L16.6121 4.51171C16.0234 3.83887 14.9766 3.83887 14.3879 4.51171L15.1405 5.17021ZM12.4987 5.3293C13.1611 6.08636 14.3389 6.08636 15.0013 5.3293L14.2487 4.6708C13.9847 4.97253 13.5153 4.97253 13.2513 4.6708L12.4987 5.3293ZM11.5013 5.3293C11.7653 5.02757 12.2347 5.02757 12.4987 5.3293L13.2513 4.6708C12.5889 3.91374 11.4111 3.91374 10.7487 4.6708L11.5013 5.3293ZM8.99871 5.3293C9.66114 6.08636 10.8389 6.08636 11.5013 5.3293L10.7487 4.6708C10.4847 4.97253 10.0153 4.97253 9.75129 4.6708L8.99871 5.3293ZM8.14049 5.17021C8.33081 4.9527 8.66918 4.9527 8.85951 5.17021L9.61209 4.51171C9.02335 3.83887 7.97665 3.83887 7.38791 4.51171L8.14049 5.17021ZM5.85819 5.20908C6.20686 6.00603 7.26604 6.16959 7.83886 5.51493L7.08629 4.85643C6.99607 4.95953 6.82926 4.93377 6.77435 4.80826L5.85819 5.20908ZM18.5 19.2609C18.5 19.5064 18.1754 19.5942 18.0517 19.3821L17.1879 19.886C17.826 20.9797 19.5 20.5271 19.5 19.2609L18.5 19.2609ZM19.5 5.284C19.5 3.99821 17.741 3.63027 17.2257 4.80826L18.1418 5.20908C18.1681 5.14906 18.2006 5.12473 18.2271 5.1123C18.259 5.09738 18.3031 5.09093 18.3513 5.10103C18.3996 5.11113 18.4374 5.1347 18.4606 5.16115C18.48 5.18318 18.5 5.21849 18.5 5.284L19.5 5.284ZM5.5 5.284C5.5 5.2185 5.52003 5.18318 5.53938 5.16115C5.56261 5.1347 5.60037 5.11113 5.64866 5.10103C5.69695 5.09093 5.74098 5.09738 5.77287 5.11231C5.79943 5.12473 5.83193 5.14906 5.85819 5.20908L6.77435 4.80826C6.25898 3.63027 4.5 3.99822 4.5 5.284L5.5 5.284ZM4.5 19.2609C4.5 20.5271 6.17404 20.9797 6.81207 19.886L5.9483 19.3821C5.82459 19.5942 5.5 19.5064 5.5 19.2609L4.5 19.2609ZM12 11.7501H8V12.7501H12V11.7501ZM16 8.75005H8V9.75005H16V8.75005ZM14 14.7501H8V15.7501H14V14.7501Z" />
</symbol>

<symbol viewBox="0 0 24 24" id="ride">
<path fill-rule="evenodd" clip-rule="evenodd" d="M16 4C16 5.10457 15.1046 6 14 6C12.8954 6 12 5.10457 12 4C12 2.89543 12.8954 2 14 2C15.1046 2 16 2.89543 16 4ZM14.5 4C14.5 4.27614 14.2761 4.5 14 4.5C13.7239 4.5 13.5 4.27614 13.5 4C13.5 3.72386 13.7239 3.5 14 3.5C14.2761 3.5 14.5 3.72386 14.5 4Z" />
<path fill-rule="evenodd" clip-rule="evenodd" d="M6 22C8.20914 22 10 20.2091 10 18C10 15.7909 8.20914 14 6 14C3.79086 14 2 15.7909 2 18C2 20.2091 3.79086 22 6 22ZM6 20.5C7.38071 20.5 8.5 19.3807 8.5 18C8.5 16.6193 7.38071 15.5 6 15.5C4.61929 15.5 3.5 16.6193 3.5 18C3.5 19.3807 4.61929 20.5 6 20.5Z" />
<path fill-rule="evenodd" clip-rule="evenodd" d="M18 22C20.2091 22 22 20.2091 22 18C22 15.7909 20.2091 14 18 14C17.9921 14 17.9843 14 17.9764 14.0001L16.9737 10.75H17.9999C18.4142 10.75 18.7499 10.4142 18.7499 9.99996C18.7499 9.58575 18.4142 9.24996 17.9999 9.24996H15.3106L13.3203 7.25966C12.5828 6.52213 11.3679 6.58941 10.7163 7.40388L8.09567 10.6797C7.45453 11.4811 7.63751 12.6597 8.49146 13.229L11.6441 15.3308L10.7723 18.8181C10.6719 19.2199 10.9162 19.6271 11.318 19.7276C11.7199 19.828 12.1271 19.5837 12.2276 19.1819L13.1326 15.5617C13.2664 15.0264 13.0493 14.4648 12.5902 14.1588L9.32351 11.981C9.20152 11.8996 9.17538 11.7313 9.26697 11.6168L11.8876 8.34092C11.9807 8.22457 12.1543 8.21495 12.2596 8.32032L14.3069 10.3676C14.5517 10.6124 14.8838 10.75 15.2301 10.75H15.404L16.4967 14.2921C15.0325 14.8863 14 16.3226 14 18C14 20.2091 15.7909 22 18 22ZM18 20.5C19.3807 20.5 20.5 19.3807 20.5 18C20.5 16.6193 19.3807 15.5 18 15.5C16.6193 15.5 15.5 16.6193 15.5 18C15.5 19.3807 16.6193 20.5 18 20.5Z" />
</symbol>

<symbol viewBox="0 0 24 24" id="time">
<path fill-rule="evenodd" clip-rule="evenodd" d="M10 2.5C9.72386 2.5 9.5 2.72386 9.5 3C9.5 3.27614 9.72386 3.5 10 3.5H11.5V5.01537C7.31464 5.27347 4 8.74965 4 13C4 17.4183 7.58172 21 12 21C16.4183 21 20 17.4183 20 13C20 8.74965 16.6854 5.27347 12.5 5.01537V3.5H14C14.2761 3.5 14.5 3.27614 14.5 3C14.5 2.72386 14.2761 2.5 14 2.5H10ZM5 13C5 9.13401 8.13401 6 12 6C15.866 6 19 9.13401 19 13C19 16.866 15.866 20 12 20C8.13401 20 5 16.866 5 13Z" />
<path d="M6.50829 4.04478C6.36538 3.81173 6.05989 3.73773 5.83351 3.89099C5.15218 4.35223 4.52474 4.88846 3.96298 5.48961C3.77632 5.68935 3.80182 6.00264 4.00976 6.18012C4.2177 6.3576 4.52926 6.33197 4.7168 6.13306C5.20999 5.60997 5.75811 5.14153 6.35166 4.73585C6.57736 4.58159 6.65121 4.27783 6.50829 4.04478Z" />
<path d="M17.4917 4.04478C17.6346 3.81173 17.9401 3.73773 18.1665 3.89099C18.8478 4.35223 19.4753 4.88846 20.037 5.48961C20.2237 5.68935 20.1982 6.00264 19.9902 6.18012C19.7823 6.3576 19.4707 6.33197 19.2832 6.13306C18.79 5.60997 18.2419 5.14153 17.6483 4.73585C17.4226 4.58159 17.3488 4.27783 17.4917 4.04478Z" />
<path fill-rule="evenodd" clip-rule="evenodd" d="M15.8536 9.14645C16.0488 9.34171 16.0488 9.65829 15.8536 9.85355L13.7231 11.984C13.899 12.2818 14 12.6291 14 13C14 14.1046 13.1046 15 12 15C10.8954 15 10 14.1046 10 13C10 11.8954 10.8954 11 12 11C12.3709 11 12.7182 11.101 13.016 11.2769L15.1465 9.14645C15.3417 8.95118 15.6583 8.95118 15.8536 9.14645ZM13 13C13 13.5523 12.5523 14 12 14C11.4477 14 11 13.5523 11 13C11 12.4477 11.4477 12 12 12C12.5523 12 13 12.4477 13 13Z" />
</symbol>

<symbol  viewBox="0 0 24 24" id="wallet">
<path fill-rule="evenodd" clip-rule="evenodd" d="M19.5 6.55001V5C19.5 3.61929 18.3807 2.5 17 2.5H5C3.61929 2.5 2.5 3.61929 2.5 5V19C2.5 20.3807 3.61929 21.5 5 21.5H19C20.3807 21.5 21.5 20.3807 21.5 19V9C21.5 7.79052 20.6411 6.78164 19.5 6.55001ZM3.5 5C3.5 4.17157 4.17157 3.5 5 3.5H17C17.8284 3.5 18.5 4.17157 18.5 5V6.5H5C4.17157 6.5 3.5 5.82843 3.5 5ZM3.5 7.00018C3.91783 7.31403 4.4372 7.5 5 7.5H19C19.8284 7.5 20.5 8.17157 20.5 9V11H16.75C15.0931 11 13.75 12.3431 13.75 14C13.75 15.6569 15.0931 17 16.75 17H20.5V19C20.5 19.8284 19.8284 20.5 19 20.5H5C4.17157 20.5 3.5 19.8284 3.5 19V7.00018ZM16.75 12H20.5V16H16.75C15.6454 16 14.75 15.1046 14.75 14C14.75 12.8954 15.6454 12 16.75 12Z" />
</symbol>

<symbol viewBox="0 0 24 24" id="facebook">
<path d="M12.5 7C12.5 5.61929 13.6193 4.5 15 4.5H15.5C15.7761 4.5 16 4.27614 16 4C16 3.72386 15.7761 3.5 15.5 3.5H15C13.067 3.5 11.5 5.067 11.5 7V9.5H8.5C8.22386 9.5 8 9.72386 8 10C8 10.2761 8.22386 10.5 8.5 10.5H11.5V20C11.5 20.2761 11.7239 20.5 12 20.5C12.2761 20.5 12.5 20.2761 12.5 20V10.5H15.5C15.7761 10.5 16 10.2761 16 10C16 9.72386 15.7761 9.5 15.5 9.5H12.5V7Z" />
</symbol>

<symbol viewBox="0 0 24 24" id="youtube">
<path fill-rule="evenodd" clip-rule="evenodd" d="M5.91951 6.68174L5.38925 6.74065C4.48573 6.84105 3.75884 7.52937 3.60938 8.42608C3.215 10.7924 3.215 13.2076 3.60938 15.5739C3.75884 16.4706 4.48573 17.1589 5.38924 17.2593L5.91951 17.3182C9.96069 17.7672 14.0392 17.7672 18.0804 17.3182L18.6106 17.2593C19.5142 17.1589 20.241 16.4706 20.3905 15.5739C20.7849 13.2076 20.7849 10.7924 20.3905 8.42608C20.241 7.52937 19.5142 6.84105 18.6106 6.74065L18.0804 6.68174C14.0392 6.23272 9.96069 6.23272 5.91951 6.68174ZM5.27881 5.74677C3.93063 5.89657 2.84599 6.92365 2.62299 8.26168C2.21047 10.7368 2.21047 13.2631 2.62299 15.7383C2.84599 17.0763 3.93063 18.1034 5.27881 18.2532L5.80908 18.3121C9.92366 18.7693 14.0762 18.7693 18.1908 18.3121L18.7211 18.2532C20.0693 18.1034 21.1539 17.0763 21.3769 15.7383C21.7894 13.2631 21.7894 10.7368 21.3769 8.26168C21.1539 6.92365 20.0693 5.89657 18.7211 5.74677L18.1908 5.68785C14.0762 5.23068 9.92366 5.23068 5.80908 5.68785L5.27881 5.74677Z" />
<path fill-rule="evenodd" clip-rule="evenodd" d="M11 14.1315L14.1972 12L11 9.8685L11 14.1315ZM14.7519 12.832C15.3457 12.4362 15.3457 11.5638 14.7519 11.1679L11.5547 9.03645C10.8901 8.59342 10 9.06981 10 9.8685V14.1315C10 14.9302 10.8901 15.4066 11.5547 14.9635L14.7519 12.832Z" />
</symbol>


<symbol viewBox="0 0 24 24" id="instagram">
<path fill-rule="evenodd" clip-rule="evenodd" d="M16 3H8C5.23858 3 3 5.23858 3 8V16C3 18.7614 5.23858 21 8 21H16C18.7614 21 21 18.7614 21 16V8C21 5.23858 18.7614 3 16 3ZM8 2C4.68629 2 2 4.68629 2 8V16C2 19.3137 4.68629 22 8 22H16C19.3137 22 22 19.3137 22 16V8C22 4.68629 19.3137 2 16 2H8Z" />
<path fill-rule="evenodd" clip-rule="evenodd" d="M12 16C14.2091 16 16 14.2091 16 12C16 9.79086 14.2091 8 12 8C9.79086 8 8 9.79086 8 12C8 14.2091 9.79086 16 12 16ZM12 17C14.7614 17 17 14.7614 17 12C17 9.23858 14.7614 7 12 7C9.23858 7 7 9.23858 7 12C7 14.7614 9.23858 17 12 17Z" />
<path d="M18.5 6.5C18.5 7.05228 18.0523 7.5 17.5 7.5C16.9477 7.5 16.5 7.05228 16.5 6.5C16.5 5.94772 16.9477 5.5 17.5 5.5C18.0523 5.5 18.5 5.94772 18.5 6.5Z" />
</symbol>


<symbol viewBox="0 0 24 24" id="arrow-back">
    <path d="M14.3535 6.35355C14.5488 6.15829 14.5488 5.84171 14.3535 5.64645C14.1583 5.45118 13.8417 5.45118 13.6464 5.64645L14.3535 6.35355ZM8.70708 11.2929L9.06063 11.6464L9.06063 11.6464L8.70708 11.2929ZM8.70708 12.7071L9.06063 12.3536L9.06063 12.3536L8.70708 12.7071ZM13.6464 18.3536C13.8417 18.5488 14.1583 18.5488 14.3535 18.3536C14.5488 18.1583 14.5488 17.8417 14.3535 17.6464L13.6464 18.3536ZM13.6464 5.64645L8.35352 10.9393L9.06063 11.6464L14.3535 6.35355L13.6464 5.64645ZM8.35352 13.0607L13.6464 18.3536L14.3535 17.6464L9.06063 12.3536L8.35352 13.0607ZM8.35352 10.9393C7.76774 11.5251 7.76774 12.4749 8.35352 13.0607L9.06063 12.3536C8.86537 12.1583 8.86537 11.8417 9.06063 11.6464L8.35352 10.9393Z" />
</symbol>

<symbol viewBox="0 0 24 24" id="arrow-forward">
<path d="M9.35355 5.64645C9.15829 5.45118 8.84171 5.45118 8.64645 5.64645C8.45118 5.84171 8.45118 6.15829 8.64645 6.35355L9.35355 5.64645ZM14.2929 11.2929L13.9393 11.6464V11.6464L14.2929 11.2929ZM14.2929 12.7071L13.9393 12.3536V12.3536L14.2929 12.7071ZM8.64645 17.6464C8.45118 17.8417 8.45118 18.1583 8.64645 18.3536C8.84171 18.5488 9.15829 18.5488 9.35355 18.3536L8.64645 17.6464ZM8.64645 6.35355L13.9393 11.6464L14.6464 10.9393L9.35355 5.64645L8.64645 6.35355ZM13.9393 12.3536L8.64645 17.6464L9.35355 18.3536L14.6464 13.0607L13.9393 12.3536ZM13.9393 11.6464C14.1346 11.8417 14.1346 12.1583 13.9393 12.3536L14.6464 13.0607C15.2322 12.4749 15.2322 11.5251 14.6464 10.9393L13.9393 11.6464Z" />
</symbol>

<symbol viewBox="0 0 24 24" id="arrow-forward-lite">
<path d="M23.0677 11.9929L18.818 7.75739L17.4061 9.17398L19.2415 11.0032L0.932469 11.0012L0.932251 13.0012L19.2369 13.0032L17.4155 14.8308L18.8321 16.2426L23.0677 11.9929Z"  />
</symbol>



<symbol viewBox="0 0 24 24" id="arrow-sort">
<path d="M3.35355 8.85352C3.15829 9.04879 2.84171 9.04879 2.64645 8.85352C2.45118 8.65826 2.45118 8.34168 2.64645 8.14642L5.93934 4.85352C6.52513 4.26774 7.47487 4.26774 8.06066 4.85352L11.3536 8.14642C11.5488 8.34168 11.5488 8.65826 11.3536 8.85352C11.1583 9.04879 10.8417 9.04879 10.6464 8.85352L7.5 5.70708V19C7.5 19.2761 7.27614 19.5 7 19.5C6.72386 19.5 6.5 19.2761 6.5 19V5.70708L3.35355 8.85352Z" fill="black"/>
<path d="M17.5 5C17.5 4.72386 17.2761 4.5 17 4.5C16.7239 4.5 16.5 4.72386 16.5 5V18.2929L13.3536 15.1464C13.1583 14.9512 12.8417 14.9512 12.6464 15.1464C12.4512 15.3417 12.4512 15.6583 12.6464 15.8536L15.9393 19.1464C16.5251 19.7322 17.4749 19.7322 18.0607 19.1464L21.3536 15.8536C21.5488 15.6583 21.5488 15.3417 21.3536 15.1464C21.1583 14.9512 20.8417 14.9512 20.6464 15.1464L17.5 18.2929V5Z" fill="black"/>
</symbol>



<symbol>
<path fill="currentColor" d="M504 256c0 136.967-111.033 248-248 248S8 392.967 8 256 119.033 8 256 8s248 111.033 248 248zM227.314 387.314l184-184c6.248-6.248 6.248-16.379 0-22.627l-22.627-22.627c-6.248-6.249-16.379-6.249-22.628 0L216 308.118l-70.059-70.059c-6.248-6.248-16.379-6.248-22.628 0l-22.627 22.627c-6.248 6.248-6.248 16.379 0 22.627l104 104c6.249 6.249 16.379 6.249 22.628.001z"></path>
</symbol>

</svg>
